<svg xmlns="http://www.w3.org/2000/svg" version="1.1" width="100%" height="600px" style="shape-rendering:geometricPrecision; text-rendering:geometricPrecision; image-rendering:optimizeQuality; fill-rule:evenodd; clip-rule:evenodd" xmlns:xlink="http://www.w3.org/1999/xlink" viewBox="0 0 2403 600" preserveAspectRatio="xMidYMid meet">
<g><path style="opacity:0.988" fill="#FFFFFF" d="M 1273.5,-0.5 C 1278.5,-0.5 1283.5,-0.5 1288.5,-0.5C 1542.98,61.4532 1797.65,123.12 2052.5,184.5C 2052.67,164.497 2052.5,144.497 2052,124.5C 2050.23,112.725 2043.73,105.225 2032.5,102C 2026.57,100.622 2020.57,99.7888 2014.5,99.5C 2014.5,94.1667 2014.5,88.8333 2014.5,83.5C 2049.2,81.3669 2083.86,79.5335 2118.5,78C 2119.33,78.8333 2120.17,79.6667 2121,80.5C 2121.33,120.833 2121.67,161.167 2122,201.5C 2144.89,207.473 2167.89,213.139 2191,218.5C 2191.83,218.333 2192.67,218.167 2193.5,218C 2192.1,214.936 2189.77,212.936 2186.5,212C 2180.36,210.24 2174.19,208.74 2168,207.5C 2167.5,202.511 2167.33,197.511 2167.5,192.5C 2202.5,192.5 2237.5,192.5 2272.5,192.5C 2272.83,197.544 2272.49,202.544 2271.5,207.5C 2254.58,211.629 2238.92,218.462 2224.5,228C 2270.35,242.089 2312.02,263.756 2349.5,293C 2363.83,305.226 2375.67,319.393 2385,335.5C 2393.8,353.713 2399.63,372.713 2402.5,392.5C 2402.5,407.833 2402.5,423.167 2402.5,438.5C 2395.51,480.995 2375.85,516.495 2343.5,545C 2327.55,558.648 2310.21,570.315 2291.5,580C 2267.61,589.97 2242.95,596.47 2217.5,599.5C 2198.17,599.5 2178.83,599.5 2159.5,599.5C 2109.05,593.109 2063.05,575.276 2021.5,546C 1992.74,519.661 1971.57,488.161 1958,451.5C 1942.55,428.405 1921.05,414.572 1893.5,410C 1882.54,408.548 1871.54,408.215 1860.5,409C 1765.6,419.196 1670.93,431.196 1576.5,445C 1523.23,448.883 1469.9,451.383 1416.5,452.5C 1404.79,452.611 1393.12,452.111 1381.5,451C 1366.52,423.901 1348.02,399.401 1326,377.5C 1309.54,392.642 1290.04,401.142 1267.5,403C 1236.55,406.876 1207.38,401.376 1180,386.5C 1177.44,390.462 1175.27,394.629 1173.5,399C 1167.84,399.499 1162.18,399.666 1156.5,399.5C 1155.48,373.835 1154.48,348.169 1153.5,322.5C 1158.84,322.334 1164.18,322.501 1169.5,323C 1178.32,345.818 1192.99,363.818 1213.5,377C 1230.43,386.264 1248.1,387.931 1266.5,382C 1276.42,376.718 1281.42,368.385 1281.5,357C 1279.72,344.874 1273.05,336.54 1261.5,332C 1242.84,326.002 1224.18,320.002 1205.5,314C 1197.72,311.278 1190.72,307.278 1184.5,302C 1167.96,299.153 1151.29,297.653 1134.5,297.5C 1133.64,222.504 1133.31,147.504 1133.5,72.5C 1161.24,76.8471 1187.58,72.6804 1212.5,60C 1218.62,55.5438 1224.46,50.7105 1230,45.5C 1240.46,32.0423 1251.29,18.8756 1262.5,6C 1265.93,3.28937 1269.6,1.1227 1273.5,-0.5 Z M 1394.5,131.5 C 1416.5,131.5 1438.5,131.5 1460.5,131.5C 1460.5,152.5 1460.5,173.5 1460.5,194.5C 1479.5,194.5 1498.5,194.5 1517.5,194.5C 1517.5,201.5 1517.5,208.5 1517.5,215.5C 1498.5,215.5 1479.5,215.5 1460.5,215.5C 1460.33,256.168 1460.5,296.835 1461,337.5C 1460.91,347.669 1463.58,357.002 1469,365.5C 1475.63,370.915 1483.3,373.581 1492,373.5C 1501.23,372.919 1510.4,371.919 1519.5,370.5C 1520.66,375.802 1520.83,381.136 1520,386.5C 1490.14,401.878 1458.98,405.378 1426.5,397C 1405.6,387.737 1394.77,371.57 1394,348.5C 1393.5,304.168 1393.33,259.835 1393.5,215.5C 1381.17,215.5 1368.83,215.5 1356.5,215.5C 1356.5,208.5 1356.5,201.5 1356.5,194.5C 1369.17,194.5 1381.83,194.5 1394.5,194.5C 1394.5,173.5 1394.5,152.5 1394.5,131.5 Z M 2053.5,186.5 C 2075.79,191.99 2098.13,197.323 2120.5,202.5C 2120.33,233.168 2120.5,263.835 2121,294.5C 2143.94,274.232 2166.27,253.232 2188,231.5C 2190.69,228.125 2192.85,224.459 2194.5,220.5C 2203.16,222.999 2211.83,225.499 2220.5,228C 2208.14,236.513 2196.14,245.513 2184.5,255C 2182.79,256.133 2182.29,257.633 2183,259.5C 2207.58,294.993 2231.91,330.66 2256,366.5C 2259.58,370.752 2263.75,374.252 2268.5,377C 2275.33,379.532 2282.33,381.365 2289.5,382.5C 2290.49,387.12 2290.83,391.786 2290.5,396.5C 2258.5,396.667 2226.5,396.5 2194.5,396C 2175.6,363.691 2155.1,332.524 2133,302.5C 2128.91,305.133 2125.08,308.133 2121.5,311.5C 2120.33,329.824 2120.17,348.158 2121,366.5C 2121.85,369.698 2123.35,372.531 2125.5,375C 2132.92,378.918 2140.75,381.418 2149,382.5C 2149.5,387.155 2149.67,391.821 2149.5,396.5C 2107.17,396.5 2064.83,396.5 2022.5,396.5C 2022.17,391.786 2022.51,387.12 2023.5,382.5C 2031.46,381.874 2039.13,380.041 2046.5,377C 2050.29,374.536 2052.46,371.036 2053,366.5C 2053.5,306.501 2053.67,246.501 2053.5,186.5 Z M 1237.5,187.5 C 1261.89,186.37 1285.39,190.37 1308,199.5C 1311.12,196.243 1312.96,192.243 1313.5,187.5C 1318.5,187.5 1323.5,187.5 1328.5,187.5C 1329.77,210.486 1330.77,233.486 1331.5,256.5C 1327.15,256.666 1322.82,256.499 1318.5,256C 1311.65,237.488 1299.99,222.822 1283.5,212C 1265.63,202.444 1247.63,202.111 1229.5,211C 1223.54,215.923 1220.87,222.257 1221.5,230C 1221.19,239.383 1224.86,246.717 1232.5,252C 1248.54,259.458 1265.21,265.125 1282.5,269C 1302.69,274.333 1319.52,284.833 1333,300.5C 1345.31,321.925 1345.65,343.592 1334,365.5C 1331.81,369.198 1329.15,372.532 1326,375.5C 1286.32,336.069 1238.82,310.903 1183.5,300C 1161.63,280.683 1155.47,257.183 1165,229.5C 1175.58,209.931 1191.75,197.431 1213.5,192C 1221.58,190.156 1229.58,188.656 1237.5,187.5 Z M 1641.5,187.5 C 1678.96,183.445 1712.63,192.612 1742.5,215C 1769.04,240.952 1779.87,272.452 1775,309.5C 1767.66,354.507 1742.16,383.674 1698.5,397C 1665.26,405.703 1632.6,404.036 1600.5,392C 1563.63,374.444 1543.13,345.277 1539,304.5C 1535.69,253.911 1556.86,218.077 1602.5,197C 1615.29,192.384 1628.29,189.217 1641.5,187.5 Z M 1909.5,187.5 C 1931.51,185.584 1952.84,188.417 1973.5,196C 2003.09,209.787 2011.59,231.62 1999,261.5C 1991.44,269.077 1982.28,272.41 1971.5,271.5C 1957.57,272.368 1946.4,267.368 1938,256.5C 1935.66,250.357 1934.99,244.024 1936,237.5C 1938.17,229.002 1940.33,220.502 1942.5,212C 1939.32,204.735 1933.65,201.568 1925.5,202.5C 1914.82,202.555 1905.99,206.555 1899,214.5C 1888.04,230.386 1882.04,248.053 1881,267.5C 1877.67,291.884 1880.34,315.55 1889,338.5C 1904.79,369.969 1929.62,380.469 1963.5,370C 1973.71,365.8 1982.21,359.3 1989,350.5C 1992.51,345.463 1996.01,340.463 1999.5,335.5C 2004.3,338.471 2008.97,341.638 2013.5,345C 1989.97,387.103 1953.97,406.103 1905.5,402C 1835.9,392.717 1803.07,352.884 1807,282.5C 1815.46,236.036 1842.29,205.87 1887.5,192C 1894.91,190.16 1902.24,188.66 1909.5,187.5 Z"></path></g>
<g><path style="opacity:0.988" fill="#FFFFFF" d="M 1096.5,77.5 C 1098.9,77.393 1100.74,78.393 1102,80.5C 1102.5,83.8168 1102.67,87.1501 1102.5,90.5C 1064.17,90.5 1025.83,90.5 987.5,90.5C 987.5,88.1667 987.5,85.8333 987.5,83.5C 1023.99,81.6207 1060.32,79.6207 1096.5,77.5 Z"></path></g>
<g><path style="opacity:0.962" fill="#FFFFFF" d="M -0.5,104.5 C 52.1667,104.5 104.833,104.5 157.5,104.5C 157.5,110.167 157.5,115.833 157.5,121.5C 148.4,122.35 139.4,123.85 130.5,126C 127.554,126.806 124.888,128.139 122.5,130C 91.8333,130.667 61.1667,130.667 30.5,130C 20.603,125.587 10.2697,122.754 -0.5,121.5C -0.5,115.833 -0.5,110.167 -0.5,104.5 Z"></path></g>
<g><path style="opacity:0.959" fill="#FFFFFF" d="M 197.5,104.5 C 250.5,104.5 303.5,104.5 356.5,104.5C 356.5,110.167 356.5,115.833 356.5,121.5C 343.553,121.768 331.219,124.601 319.5,130C 289.167,130.667 258.833,130.667 228.5,130C 218.555,125.764 208.222,122.93 197.5,121.5C 197.5,115.833 197.5,110.167 197.5,104.5 Z"></path></g>
<g><path style="opacity:0.956" fill="#FFFFFF" d="M 1016.5,105.5 C 1045,104.502 1073.66,104.169 1102.5,104.5C 1102.5,113.167 1102.5,121.833 1102.5,130.5C 1079.5,130.5 1056.5,130.5 1033.5,130.5C 1032.87,118.566 1027.2,110.232 1016.5,105.5 Z"></path></g>
<g><path style="opacity:0.971" fill="#FFFFFF" d="M 40.5,140.5 C 65.8333,140.5 91.1667,140.5 116.5,140.5C 115.579,150.127 115.245,159.794 115.5,169.5C 90.8333,169.5 66.1667,169.5 41.5,169.5C 41.7819,159.781 41.4486,150.114 40.5,140.5 Z"></path></g>
<g><path style="opacity:0.973" fill="#FFFFFF" d="M 238.5,140.5 C 263.5,140.5 288.5,140.5 313.5,140.5C 313.5,150.167 313.5,159.833 313.5,169.5C 288.833,169.5 264.167,169.5 239.5,169.5C 239.693,159.806 239.36,150.139 238.5,140.5 Z"></path></g>
<g><path style="opacity:0.965" fill="#FFFFFF" d="M 1033.5,140.5 C 1056.5,140.5 1079.5,140.5 1102.5,140.5C 1102.5,150.167 1102.5,159.833 1102.5,169.5C 1079.5,169.5 1056.5,169.5 1033.5,169.5C 1033.5,159.833 1033.5,150.167 1033.5,140.5 Z"></path></g>
<g><path style="opacity:0.979" fill="#FFFFFF" d="M 41.5,175.5 C 66.1667,175.5 90.8333,175.5 115.5,175.5C 115.5,186.167 115.5,196.833 115.5,207.5C 90.8333,207.5 66.1667,207.5 41.5,207.5C 41.5,196.833 41.5,186.167 41.5,175.5 Z"></path></g>
<g><path style="opacity:0.982" fill="#FFFFFF" d="M 239.5,175.5 C 264.167,175.5 288.833,175.5 313.5,175.5C 313.5,186.167 313.5,196.833 313.5,207.5C 288.833,207.5 264.167,207.5 239.5,207.5C 239.5,196.833 239.5,186.167 239.5,175.5 Z"></path></g>
<g><path style="opacity:0.973" fill="#FFFFFF" d="M 1033.5,175.5 C 1056.5,175.5 1079.5,175.5 1102.5,175.5C 1102.5,186.167 1102.5,196.833 1102.5,207.5C 1040.83,207.667 979.166,207.5 917.5,207C 943.689,188.095 972.689,182.095 1004.5,189C 1014.42,190.974 1023.92,194.141 1033,198.5C 1033.5,190.841 1033.67,183.174 1033.5,175.5 Z"></path></g>
<g><path style="opacity:0.961" fill="#FFFFFF" d="M 481.5,186.5 C 505.627,184.265 528.961,187.432 551.5,196C 557.834,199.165 563.834,202.831 569.5,207C 548.167,207.667 526.833,207.667 505.5,207C 497.52,202.343 489.52,202.343 481.5,207C 463.5,207.667 445.5,207.667 427.5,207C 443.882,195.709 461.882,188.876 481.5,186.5 Z"></path></g>
<g><path style="opacity:0.963" fill="#FFFFFF" d="M 714.5,186.5 C 734.294,185.762 753.961,186.929 773.5,190C 786.487,192.493 797.82,198.16 807.5,207C 784.833,207.667 762.167,207.667 739.5,207C 729.51,202.392 719.51,202.392 709.5,207C 690.833,207.667 672.167,207.667 653.5,207C 672.32,195.449 692.654,188.616 714.5,186.5 Z"></path></g>
<g><path style="opacity:0.985" fill="#FFFFFF" d="M 1653.5,202.5 C 1669.02,201.509 1680.85,207.509 1689,220.5C 1694.34,230.169 1697.67,240.502 1699,251.5C 1703.62,280.501 1703.62,309.501 1699,338.5C 1697.08,355.175 1690.24,369.342 1678.5,381C 1665.02,389.121 1651.35,389.455 1637.5,382C 1631.38,377.261 1626.54,371.427 1623,364.5C 1619.12,355.516 1616.45,346.183 1615,336.5C 1611.69,308.834 1611.69,281.167 1615,253.5C 1616.3,236.567 1622.8,222.067 1634.5,210C 1640.29,205.798 1646.63,203.298 1653.5,202.5 Z"></path></g>
<g><path style="opacity:0.961" fill="#FFFFFF" d="M 41.5,210.5 C 66.1667,210.5 90.8333,210.5 115.5,210.5C 115.5,218.167 115.5,225.833 115.5,233.5C 156.833,233.5 198.167,233.5 239.5,233.5C 239.5,225.833 239.5,218.167 239.5,210.5C 264.167,210.5 288.833,210.5 313.5,210.5C 313.5,222.167 313.5,233.833 313.5,245.5C 222.833,245.5 132.167,245.5 41.5,245.5C 41.5,233.833 41.5,222.167 41.5,210.5 Z"></path></g>
<g><path style="opacity:0.96" fill="#FFFFFF" d="M 422.5,210.5 C 440.17,210.333 457.836,210.5 475.5,211C 467.325,220.67 462.325,231.837 460.5,244.5C 438.833,245.833 417.167,245.833 395.5,244.5C 402.302,231.371 411.302,220.038 422.5,210.5 Z"></path></g>
<g><path style="opacity:0.964" fill="#FFFFFF" d="M 511.5,210.5 C 532.169,210.333 552.836,210.5 573.5,211C 583.645,220.453 590.311,231.953 593.5,245.5C 569.833,245.5 546.167,245.5 522.5,245.5C 521.823,232.806 518.156,221.139 511.5,210.5 Z"></path></g>
<g><path style="opacity:0.967" fill="#FFFFFF" d="M 648.5,210.5 C 666.167,210.5 683.833,210.5 701.5,210.5C 703.02,217.896 704.853,225.23 707,232.5C 707.667,236.5 707.667,240.5 707,244.5C 695.407,245.162 683.74,245.495 672,245.5C 660.26,245.495 648.593,245.162 637,244.5C 633.944,230.834 637.778,219.5 648.5,210.5 Z"></path></g>
<g><path style="opacity:0.965" fill="#FFFFFF" d="M 745.5,210.5 C 767.169,210.333 788.836,210.5 810.5,211C 818.27,221.134 822.603,232.634 823.5,245.5C 800.5,245.5 777.5,245.5 754.5,245.5C 755.389,232.718 752.389,221.051 745.5,210.5 Z"></path></g>
<g><path style="opacity:0.961" fill="#FFFFFF" d="M 912.5,210.5 C 935.502,210.333 958.502,210.5 981.5,211C 969.353,219.642 961.353,231.142 957.5,245.5C 933.824,245.833 910.157,245.5 886.5,244.5C 893.236,231.697 901.903,220.363 912.5,210.5 Z"></path></g>
<g><path style="opacity:0.959" fill="#FFFFFF" d="M 1012.5,211.5 C 1042.33,210.502 1072.33,210.169 1102.5,210.5C 1102.5,222.167 1102.5,233.833 1102.5,245.5C 1079.5,245.5 1056.5,245.5 1033.5,245.5C 1032.58,230.31 1025.58,218.977 1012.5,211.5 Z"></path></g>
<g><path style="opacity:0.969" fill="#FFFFFF" d="M 41.5,247.5 C 132.167,247.5 222.833,247.5 313.5,247.5C 313.5,259.5 313.5,271.5 313.5,283.5C 288.833,283.5 264.167,283.5 239.5,283.5C 239.5,274.167 239.5,264.833 239.5,255.5C 198.167,255.5 156.833,255.5 115.5,255.5C 115.5,264.833 115.5,274.167 115.5,283.5C 90.8333,283.5 66.1667,283.5 41.5,283.5C 41.5,271.5 41.5,259.5 41.5,247.5 Z"></path></g>
<g><path style="opacity:0.966" fill="#FFFFFF" d="M 393.5,247.5 C 415.833,247.5 438.167,247.5 460.5,247.5C 459.534,254.796 458.867,262.13 458.5,269.5C 480.18,269.712 501.847,269.379 523.5,268.5C 523.565,261.476 523.232,254.476 522.5,247.5C 546.5,247.5 570.5,247.5 594.5,247.5C 597.018,259.355 598.018,271.355 597.5,283.5C 526.5,283.5 455.5,283.5 384.5,283.5C 385.62,271.02 388.62,259.02 393.5,247.5 Z"></path></g>
<g><path style="opacity:0.953" fill="#FFFFFF" d="M 638.5,247.5 C 660.833,247.5 683.167,247.5 705.5,247.5C 702.183,257.524 695.183,263.357 684.5,265C 672.915,266.38 661.582,265.38 650.5,262C 644.777,258.457 640.777,253.624 638.5,247.5 Z"></path></g>
<g><path style="opacity:0.959" fill="#FFFFFF" d="M 754.5,247.5 C 777.5,247.5 800.5,247.5 823.5,247.5C 823.5,259.5 823.5,271.5 823.5,283.5C 783.832,283.667 744.165,283.5 704.5,283C 720.964,278.012 737.297,272.512 753.5,266.5C 754.496,260.202 754.83,253.868 754.5,247.5 Z"></path></g>
<g><path style="opacity:0.967" fill="#FFFFFF" d="M 884.5,247.5 C 908.502,247.333 932.502,247.5 956.5,248C 952.938,259.538 950.938,271.371 950.5,283.5C 925.5,283.5 900.5,283.5 875.5,283.5C 876.621,271.015 879.621,259.015 884.5,247.5 Z"></path></g>
<g><path style="opacity:0.962" fill="#FFFFFF" d="M 1033.5,247.5 C 1056.5,247.5 1079.5,247.5 1102.5,247.5C 1102.5,259.5 1102.5,271.5 1102.5,283.5C 1079.5,283.5 1056.5,283.5 1033.5,283.5C 1033.5,271.5 1033.5,259.5 1033.5,247.5 Z"></path></g>
<g><path style="opacity:0.976" fill="#FFFFFF" d="M -0.5,397.5 C -0.5,391.833 -0.5,386.167 -0.5,380.5C 9.21612,379.576 18.8828,378.076 28.5,376C 33.9352,374.231 37.7685,370.731 40,365.5C 41.4738,338.564 41.9738,311.564 41.5,284.5C 66.1667,284.5 90.8333,284.5 115.5,284.5C 115.333,308.836 115.5,333.169 116,357.5C 117.526,366.03 122.359,371.863 130.5,375C 139.045,377.309 147.711,378.976 156.5,380C 157.475,385.741 157.808,391.575 157.5,397.5C 104.833,397.5 52.1667,397.5 -0.5,397.5 Z"></path></g>
<g><path style="opacity:0.977" fill="#FFFFFF" d="M 239.5,284.5 C 264.167,284.5 288.833,284.5 313.5,284.5C 313.027,310.898 313.527,337.231 315,363.5C 317.167,368.333 320.667,371.833 325.5,374C 335.304,377.127 345.304,379.294 355.5,380.5C 356.495,386.128 356.829,391.794 356.5,397.5C 303.5,397.5 250.5,397.5 197.5,397.5C 197.192,391.575 197.525,385.741 198.5,380C 207.23,379.512 215.896,378.512 224.5,377C 232.915,374.589 237.748,369.089 239,360.5C 239.5,335.169 239.667,309.836 239.5,284.5 Z"></path></g>
<g><path style="opacity:0.978" fill="#FFFFFF" d="M 384.5,284.5 C 455.5,284.5 526.5,284.5 597.5,284.5C 597.5,285.5 597.5,286.5 597.5,287.5C 551.167,287.5 504.833,287.5 458.5,287.5C 458.313,304.691 461.146,321.358 467,337.5C 478.496,362.019 497.996,374.019 525.5,373.5C 540.911,372.788 554.578,367.621 566.5,358C 574.072,351.099 580.905,343.599 587,335.5C 592.589,339.378 598.089,343.378 603.5,347.5C 575.145,389.671 535.479,408.171 484.5,403C 415.178,393.851 381.845,354.351 384.5,284.5 Z"></path></g>
<g><path style="opacity:0.981" fill="#FFFFFF" d="M 696.5,284.5 C 738.833,284.5 781.167,284.5 823.5,284.5C 823.009,305.838 822.342,327.171 821.5,348.5C 821.006,356.743 823.006,364.243 827.5,371C 829.67,372.586 832.004,373.92 834.5,375C 842.095,376.356 849.762,376.856 857.5,376.5C 857.5,382.167 857.5,387.833 857.5,393.5C 835.942,402.32 813.608,405.153 790.5,402C 773.355,399.677 761.688,390.51 755.5,374.5C 727.372,402.495 694.372,410.328 656.5,398C 632.236,385.974 622.403,366.474 627,339.5C 629.942,323.224 638.442,310.724 652.5,302C 666.703,294.722 681.37,288.888 696.5,284.5 Z M 751.5,286.5 C 752.5,286.5 753.5,286.5 754.5,286.5C 754.814,309.521 754.314,332.521 753,355.5C 740.704,370.223 725.871,373.723 708.5,366C 703.421,362.01 700.255,356.843 699,350.5C 694.997,324.336 705.163,306.169 729.5,296C 736.975,292.906 744.309,289.74 751.5,286.5 Z"></path></g>
<g><path style="opacity:0.981" fill="#FFFFFF" d="M 875.5,284.5 C 900.5,284.5 925.5,284.5 950.5,284.5C 949.738,300.659 950.905,316.659 954,332.5C 962.275,364.541 982.442,377.041 1014.5,370C 1021.86,366.631 1028.03,361.798 1033,355.5C 1033.5,331.836 1033.67,308.169 1033.5,284.5C 1056.5,284.5 1079.5,284.5 1102.5,284.5C 1102.33,309.169 1102.5,333.836 1103,358.5C 1104.33,365.331 1108.16,370.164 1114.5,373C 1122.67,375.333 1131,376.5 1139.5,376.5C 1139.5,381.833 1139.5,387.167 1139.5,392.5C 1105.2,395.057 1070.87,396.89 1036.5,398C 1036,397.5 1035.5,397 1035,396.5C 1034.67,389.833 1034.33,383.167 1034,376.5C 1004.36,404.248 970.523,410.748 932.5,396C 898.241,377.022 879.407,347.856 876,308.5C 875.5,300.507 875.334,292.507 875.5,284.5 Z"></path></g>
</svg>
